# xmcd CD database file
#
# Track frame offsets:
#	150
#	11123
#	33424
#	53479
#	88577
#	117354
#	136339
#	155458
#	173761
#	192923
#	212349
#	247279
#
# Disc length: 3480 seconds
#
# Revision: 0
# Processed by: cddbd v1.5.2PL0 Copyright (c) Steve Scherf et al.
# Submitted via: CDex 1.51
#
DISCID=9d0d960c
DTITLE=Patrik - Romantic Standards
DYEAR=2003
DGENRE=New Age
TTITLE0=As Time Goes By
TTITLE1=Love Me Tender
TTITLE2=Bese Me Mucho
TTITLE3=Samba Pa Ti
TTITLE4=Europa
TTITLE5=Hello
TTITLE6=Sea Of Love
TTITLE7=Time To Say Goodbye
TTITLE8=Something
TTITLE9=And I Love Her
TTITLE10=Your My Fantasy
TTITLE11=Malaguena
EXTD=YEAR: 2003
EXTT0=
EXTT1=
EXTT2=
EXTT3=
EXTT4=
EXTT5=
EXTT6=
EXTT7=
EXTT8=
EXTT9=
EXTT10=
EXTT11=
PLAYORDER=
